<svg width="128" height="32" viewBox="0 0 128 32" fill="none" xmlns="http://www.w3.org/2000/svg">
<path d="M15.5273 9.68359C15.2669 9.69661 15.0456 9.72917 14.8633 9.78125C14.694 9.82031 14.5378 9.91797 14.3945 10.0742C14.2513 10.2174 14.1081 10.4258 13.9648 10.6992C13.8346 10.9596 13.6719 11.3112 13.4766 11.7539L8.53516 24.2539H8.20312L2.71484 12.0078C2.46745 11.5 2.2526 11.0964 2.07031 10.7969C1.90104 10.4974 1.73177 10.2695 1.5625 10.1133C1.40625 9.94401 1.23047 9.83333 1.03516 9.78125C0.852865 9.71615 0.625 9.68359 0.351562 9.68359V9.23438H6.30859V9.68359L5.64453 9.70312C4.95443 9.74219 4.60938 9.97656 4.60938 10.4062C4.60938 10.4974 4.6224 10.6016 4.64844 10.7188C4.67448 10.8229 4.72005 10.9661 4.78516 11.1484C4.85026 11.3307 4.94141 11.5586 5.05859 11.832C5.17578 12.1055 5.33203 12.4505 5.52734 12.8672L8.88672 20.4062L12.1484 12.2422C12.3047 11.8906 12.4154 11.5716 12.4805 11.2852C12.5586 10.9987 12.5977 10.7643 12.5977 10.582C12.5977 10.4779 12.5651 10.3672 12.5 10.25C12.4349 10.1198 12.3503 10.0221 12.2461 9.95703C12.1029 9.85286 11.9466 9.78776 11.7773 9.76172C11.6211 9.72266 11.3542 9.69661 10.9766 9.68359V9.23438H15.5273V9.68359ZM31.875 24H26.1914V23.5898C26.3867 23.5898 26.5495 23.5898 26.6797 23.5898C26.8099 23.5768 26.9141 23.5638 26.9922 23.5508C27.0833 23.5247 27.1615 23.5052 27.2266 23.4922C27.2917 23.4661 27.3568 23.4336 27.4219 23.3945C27.526 23.3294 27.6042 23.2513 27.6562 23.1602C27.7214 23.056 27.7539 22.9518 27.7539 22.8477C27.7539 22.4831 27.6107 21.9753 27.3242 21.3242L26.3867 19.1953H20.5664L19.5312 21.793C19.4792 21.9362 19.4336 22.0859 19.3945 22.2422C19.3685 22.3854 19.3555 22.5286 19.3555 22.6719C19.3555 22.9714 19.4727 23.1992 19.707 23.3555C19.9414 23.5117 20.332 23.5898 20.8789 23.5898V24H16.4453V23.5898C16.7188 23.5768 16.9531 23.5312 17.1484 23.4531C17.3438 23.375 17.5391 23.2122 17.7344 22.9648C17.9297 22.7044 18.138 22.3398 18.3594 21.8711C18.5938 21.3893 18.8867 20.7383 19.2383 19.918L23.8672 8.98047H24.2969L29.8633 21.6367C30.0456 22.0534 30.2018 22.3854 30.332 22.6328C30.4753 22.8802 30.6185 23.0755 30.7617 23.2188C30.9049 23.349 31.0612 23.4401 31.2305 23.4922C31.4128 23.5443 31.6276 23.5768 31.875 23.5898V24ZM26.0938 18.2969L23.5156 12.1445L20.9375 18.2969H26.0938ZM45.3711 20.1328L44.2773 24H32.3047V23.5898C32.7083 23.5638 33.0339 23.5182 33.2812 23.4531C33.5417 23.388 33.737 23.2839 33.8672 23.1406C34.0104 22.9974 34.1081 22.8021 34.1602 22.5547C34.2122 22.3073 34.2383 21.9883 34.2383 21.5977V11.6758C34.2383 11.2852 34.2122 10.9661 34.1602 10.7188C34.1211 10.4714 34.0299 10.276 33.8867 10.1328C33.7435 9.98958 33.5417 9.88542 33.2812 9.82031C33.0339 9.75521 32.7083 9.70964 32.3047 9.68359V9.23438H38.5742V9.68359C38.1315 9.70964 37.7734 9.75521 37.5 9.82031C37.2266 9.8724 37.0182 9.97656 36.875 10.1328C36.7318 10.276 36.6341 10.4714 36.582 10.7188C36.5299 10.9661 36.5039 11.2852 36.5039 11.6758V22.2227C36.5039 22.418 36.5234 22.5807 36.5625 22.7109C36.6146 22.8281 36.7122 22.9193 36.8555 22.9844C36.9987 23.0495 37.194 23.0951 37.4414 23.1211C37.6888 23.1341 38.0208 23.1406 38.4375 23.1406H39.9219C40.8724 23.1406 41.6602 23.0299 42.2852 22.8086C42.9232 22.5872 43.444 22.2487 43.8477 21.793C44.0039 21.6107 44.1536 21.3828 44.2969 21.1094C44.4531 20.8359 44.6224 20.5104 44.8047 20.1328H45.3711ZM50.0977 10.1719C49.4727 10.1719 48.9583 10.2044 48.5547 10.2695C48.1641 10.3346 47.8385 10.4714 47.5781 10.6797C47.3307 10.888 47.1289 11.181 46.9727 11.5586C46.8294 11.9232 46.6927 12.4115 46.5625 13.0234H46.0156L46.1523 9.23438H58.7305L58.8672 13.0234H58.3203C58.1901 12.4115 58.0469 11.9232 57.8906 11.5586C57.7474 11.181 57.5521 10.888 57.3047 10.6797C57.0573 10.4714 56.7318 10.3346 56.3281 10.2695C55.9245 10.2044 55.4036 10.1719 54.7656 10.1719H53.5742V21.5977C53.5742 22.0013 53.6003 22.3268 53.6523 22.5742C53.7044 22.8216 53.8021 23.0169 53.9453 23.1602C54.1016 23.3034 54.3164 23.4076 54.5898 23.4727C54.8763 23.5247 55.2474 23.5638 55.7031 23.5898V24H49.2188V23.5898C49.6745 23.5638 50.0391 23.5247 50.3125 23.4727C50.5859 23.4076 50.7943 23.2969 50.9375 23.1406C51.0938 22.9714 51.1914 22.7435 51.2305 22.457C51.2826 22.1706 51.3086 21.793 51.3086 21.3242V10.1719H50.0977ZM70.6836 16.0117V11.6758C70.6836 11.2721 70.6576 10.9531 70.6055 10.7188C70.5664 10.4714 70.4753 10.276 70.332 10.1328C70.2018 9.98958 70.0065 9.89193 69.7461 9.83984C69.4857 9.77474 69.1406 9.72266 68.7109 9.68359V9.23438H74.9023V9.68359C74.4727 9.72266 74.1276 9.77474 73.8672 9.83984C73.6068 9.89193 73.4049 9.98958 73.2617 10.1328C73.1315 10.276 73.0469 10.4714 73.0078 10.7188C72.9688 10.9531 72.9492 11.2721 72.9492 11.6758V21.5977C72.9492 21.9883 72.9688 22.3073 73.0078 22.5547C73.0599 22.7891 73.1576 22.9779 73.3008 23.1211C73.444 23.2643 73.6393 23.3685 73.8867 23.4336C74.1471 23.4987 74.4857 23.5508 74.9023 23.5898V24H68.7109V23.5898C69.1406 23.5638 69.4857 23.5247 69.7461 23.4727C70.0065 23.4076 70.2018 23.2969 70.332 23.1406C70.4753 22.9714 70.5664 22.7435 70.6055 22.457C70.6576 22.1706 70.6836 21.793 70.6836 21.3242V16.9883H63.9062V21.5977C63.9062 21.9883 63.9258 22.3073 63.9648 22.5547C64.0169 22.7891 64.1146 22.9779 64.2578 23.1211C64.401 23.2643 64.6029 23.3685 64.8633 23.4336C65.1237 23.4987 65.4622 23.5508 65.8789 23.5898V24H59.668V23.5898C60.1107 23.5638 60.4622 23.5247 60.7227 23.4727C60.9831 23.4076 61.1784 23.2969 61.3086 23.1406C61.4518 22.9714 61.543 22.7435 61.582 22.457C61.6211 22.1706 61.6406 21.793 61.6406 21.3242V11.6758C61.6406 11.2721 61.6146 10.9531 61.5625 10.7188C61.5234 10.4714 61.4323 10.276 61.2891 10.1328C61.1589 9.98958 60.9635 9.89193 60.7031 9.83984C60.4427 9.77474 60.0977 9.72266 59.668 9.68359V9.23438H65.8789V9.68359C65.4492 9.72266 65.1042 9.77474 64.8438 9.83984C64.5833 9.89193 64.3815 9.98958 64.2383 10.1328C64.1081 10.276 64.0169 10.4714 63.9648 10.7188C63.9258 10.9531 63.9062 11.2721 63.9062 11.6758V16.0117H70.6836ZM87.6562 24H75.625V23.5898C76.0286 23.5638 76.3542 23.5182 76.6016 23.4531C76.862 23.388 77.0573 23.2839 77.1875 23.1406C77.3307 22.9974 77.4284 22.8021 77.4805 22.5547C77.5326 22.3073 77.5586 21.9883 77.5586 21.5977V11.6758C77.5586 11.2852 77.5326 10.9661 77.4805 10.7188C77.4414 10.4714 77.3503 10.276 77.207 10.1328C77.0638 9.98958 76.862 9.88542 76.6016 9.82031C76.3542 9.75521 76.0286 9.70964 75.625 9.68359V9.23438H87.4609L87.5 12.4375H86.9727C86.8685 11.9297 86.7513 11.526 86.6211 11.2266C86.4909 10.9141 86.3021 10.6732 86.0547 10.5039C85.8203 10.3346 85.5013 10.224 85.0977 10.1719C84.707 10.1198 84.1992 10.0938 83.5742 10.0938H80.5664C80.2669 10.0938 80.0651 10.1393 79.9609 10.2305C79.8698 10.3216 79.8242 10.5299 79.8242 10.8555V15.7969H83.2422C83.6979 15.7969 84.069 15.7708 84.3555 15.7188C84.6419 15.6667 84.8698 15.569 85.0391 15.4258C85.2214 15.2695 85.3581 15.0547 85.4492 14.7812C85.5404 14.5078 85.625 14.1432 85.7031 13.6875H86.2305V18.8633H85.7031C85.625 18.3945 85.5404 18.0234 85.4492 17.75C85.3581 17.4635 85.2279 17.2487 85.0586 17.1055C84.8893 16.9492 84.6615 16.8451 84.375 16.793C84.0885 16.7409 83.7109 16.7148 83.2422 16.7148H79.8242V22.2227C79.8242 22.444 79.8372 22.6068 79.8633 22.7109C79.8893 22.8151 79.9349 22.8932 80 22.9453C80.1042 23.0104 80.3516 23.069 80.7422 23.1211C81.1458 23.1602 81.6211 23.1797 82.168 23.1797H82.793C83.5872 23.1797 84.2513 23.1406 84.7852 23.0625C85.332 22.9844 85.7943 22.8346 86.1719 22.6133C86.5625 22.3919 86.901 22.0924 87.1875 21.7148C87.474 21.3372 87.7539 20.8424 88.0273 20.2305H88.6719L87.6562 24ZM103.652 24H100.059L94.7461 17.125L93.5156 17.1836V21.5977C93.5156 21.9883 93.5352 22.3073 93.5742 22.5547C93.6263 22.8021 93.724 23.0039 93.8672 23.1602C94.0104 23.3034 94.2122 23.4076 94.4727 23.4727C94.7331 23.5247 95.0781 23.5638 95.5078 23.5898V24H89.3359V23.5898C89.7526 23.5508 90.0846 23.4987 90.332 23.4336C90.5924 23.3685 90.7878 23.2578 90.918 23.1016C91.0482 22.9453 91.1328 22.7305 91.1719 22.457C91.2109 22.1706 91.2305 21.793 91.2305 21.3242V11.6758C91.2305 11.2852 91.2109 10.9727 91.1719 10.7383C91.1328 10.4909 91.0482 10.2956 90.918 10.1523C90.7878 10.0091 90.5924 9.90495 90.332 9.83984C90.0846 9.77474 89.7526 9.72266 89.3359 9.68359V9.23438H95.4883C96.582 9.23438 97.5586 9.38411 98.418 9.68359C99.2904 9.97005 99.9349 10.3607 100.352 10.8555C100.625 11.1549 100.827 11.5065 100.957 11.9102C101.087 12.3008 101.152 12.724 101.152 13.1797C101.152 14.1953 100.833 14.9961 100.195 15.582C99.5703 16.168 98.5482 16.6042 97.1289 16.8906L101.719 22.5547C102.031 22.9193 102.324 23.1732 102.598 23.3164C102.884 23.4596 103.236 23.5508 103.652 23.5898V24ZM93.5156 16.3633C94.0365 16.3503 94.4857 16.3307 94.8633 16.3047C95.2539 16.2786 95.5924 16.2396 95.8789 16.1875C96.1784 16.1224 96.4518 16.0443 96.6992 15.9531C96.9466 15.862 97.2005 15.7448 97.4609 15.6016C97.8646 15.3802 98.1771 15.0547 98.3984 14.625C98.6198 14.1823 98.7305 13.681 98.7305 13.1211C98.7305 12.0664 98.3984 11.2982 97.7344 10.8164C97.0833 10.3216 96.0417 10.0742 94.6094 10.0742C94.1667 10.0742 93.8737 10.1328 93.7305 10.25C93.5872 10.3542 93.5156 10.5625 93.5156 10.875V16.3633ZM119.609 24H113.926V23.5898C114.121 23.5898 114.284 23.5898 114.414 23.5898C114.544 23.5768 114.648 23.5638 114.727 23.5508C114.818 23.5247 114.896 23.5052 114.961 23.4922C115.026 23.4661 115.091 23.4336 115.156 23.3945C115.26 23.3294 115.339 23.2513 115.391 23.1602C115.456 23.056 115.488 22.9518 115.488 22.8477C115.488 22.4831 115.345 21.9753 115.059 21.3242L114.121 19.1953H108.301L107.266 21.793C107.214 21.9362 107.168 22.0859 107.129 22.2422C107.103 22.3854 107.09 22.5286 107.09 22.6719C107.09 22.9714 107.207 23.1992 107.441 23.3555C107.676 23.5117 108.066 23.5898 108.613 23.5898V24H104.18V23.5898C104.453 23.5768 104.688 23.5312 104.883 23.4531C105.078 23.375 105.273 23.2122 105.469 22.9648C105.664 22.7044 105.872 22.3398 106.094 21.8711C106.328 21.3893 106.621 20.7383 106.973 19.918L111.602 8.98047H112.031L117.598 21.6367C117.78 22.0534 117.936 22.3854 118.066 22.6328C118.21 22.8802 118.353 23.0755 118.496 23.2188C118.639 23.349 118.796 23.4401 118.965 23.4922C119.147 23.5443 119.362 23.5768 119.609 23.5898V24ZM113.828 18.2969L111.25 12.1445L108.672 18.2969H113.828Z" fill="#262626"/>
<circle cx="124.5" cy="20.5" r="3.5" fill="#C485A4"/>
</svg>
