<svg width="18" height="17" viewBox="0 0 18 17" fill="none" xmlns="http://www.w3.org/2000/svg">
<path fill-rule="evenodd" clip-rule="evenodd" d="M2.20702 2.39076C2.3963 2.1444 2.68933 2 3.00001 2H17C17.3107 2 17.6037 2.1444 17.793 2.39076C17.9823 2.63713 18.0463 2.95747 17.9662 3.25766L15.9662 10.7577C15.8495 11.1954 15.4531 11.5 15 11.5H5.00001C4.54696 11.5 4.15051 11.1954 4.03377 10.7577L2.03377 3.25766C1.95372 2.95747 2.01774 2.63713 2.20702 2.39076ZM4.30162 4L5.76829 9.5H14.2317L15.6984 4H4.30162Z" fill="#313131"/>
<path fill-rule="evenodd" clip-rule="evenodd" d="M0 0H2.5C2.95887 0 3.35885 0.312297 3.47014 0.757464L3.97014 2.75746L2.02986 3.24254L1.71922 2H0V0Z" fill="#313131"/>
<path fill-rule="evenodd" clip-rule="evenodd" d="M5.5 14C5.22386 14 5 14.2239 5 14.5C5 14.7761 5.22386 15 5.5 15C5.77614 15 6 14.7761 6 14.5C6 14.2239 5.77614 14 5.5 14ZM3 14.5C3 13.1193 4.11929 12 5.5 12C6.88071 12 8 13.1193 8 14.5C8 15.8807 6.88071 17 5.5 17C4.11929 17 3 15.8807 3 14.5Z" fill="#313131"/>
<path fill-rule="evenodd" clip-rule="evenodd" d="M14.5 14C14.2239 14 14 14.2239 14 14.5C14 14.7761 14.2239 15 14.5 15C14.7761 15 15 14.7761 15 14.5C15 14.2239 14.7761 14 14.5 14ZM12 14.5C12 13.1193 13.1193 12 14.5 12C15.8807 12 17 13.1193 17 14.5C17 15.8807 15.8807 17 14.5 17C13.1193 17 12 15.8807 12 14.5Z" fill="#313131"/>
</svg>
