<svg width="30" height="30" viewBox="0 0 30 30" fill="none" xmlns="http://www.w3.org/2000/svg">
<path d="M4.61328 8.99121C3.58868 10.7585 3 12.8101 3 15C3 21.6274 8.37258 27 15 27C19.1653 27 22.8327 24.8764 24.9844 21.6543L26.8174 24.2373C24.0718 27.7449 19.7997 30 15 30C6.71573 30 0 23.2843 0 15C0 11.6612 1.09083 8.57723 2.93555 6.08496L4.61328 8.99121ZM15 0C23.2843 0 30 6.71573 30 15C30 17.2197 29.5166 19.3262 28.6514 21.2217L26.6699 17.79C26.8832 16.8945 27 15.9609 27 15C27 8.37258 21.6274 3 15 3C12.0274 3 9.30903 4.08291 7.21289 5.87305L5.37891 3.49219C7.98325 1.3125 11.3382 0 15 0Z" fill="black"/>
<path d="M12.4246 10.4771L16.8363 16.3133C15.9478 17.0944 18.5 19 16.725 21C14.8798 18.6569 14.0299 17.2398 12.1846 14.8967L8.12132 19.023L6 16.9017L12.4246 10.4771Z" fill="black"/>
<path d="M16.725 21L10.4017 12.5L12.4246 10.477L16.8363 16.3133L20.5 11.5L22.5 14L16.725 21Z" fill="black"/>
<path d="M7.5 13.5L2.94 6.09998L2.5 13.5H7.5Z" fill="black"/>
<path d="M23 13.5L28.6507 21.22L28 13.5H23Z" fill="black"/>
</svg>
