<svg width="32" height="34" viewBox="0 0 32 34" fill="none" xmlns="http://www.w3.org/2000/svg">
<path d="M1.76328 14.8615L3.51111 14.7742V14.7742L1.76328 14.8615ZM29.2701 30.6862L27.8526 29.6599V29.66L29.2701 30.6862ZM18.0075 29.7933C17.0443 29.7128 16.1982 30.4283 16.1177 31.3914C16.0372 32.3545 16.7526 33.2006 17.7158 33.2811L17.8616 31.5372L18.0075 29.7933ZM22.3943 21.9205L24.144 21.8934V21.8934L22.3943 21.9205ZM1.76328 14.8615L3.51111 14.7742C3.23073 9.15829 8.53227 3.5 15.7416 3.5V1.75V0C6.83854 0 -0.379425 7.03909 0.0154616 14.9487L1.76328 14.8615ZM15.7416 1.75V3.5C23.0167 3.5 28.2116 8.40064 27.8933 14.7742L29.6412 14.8615L31.389 14.9488C31.8277 6.16275 24.5788 0 15.7416 0V1.75ZM4.73119 26.3789V24.6289C4.35944 24.6289 4.14864 24.5813 4.03998 24.5422C3.94862 24.5093 3.92343 24.4814 3.91011 24.4663C3.84915 24.3972 3.6821 24.1241 3.59812 23.241C3.51678 22.3855 3.53554 21.2931 3.5594 19.8243C3.58262 18.3949 3.60701 16.6952 3.51111 14.7742L1.76328 14.8615L0.0154616 14.9487C0.105043 16.7431 0.0830401 18.3406 0.059864 19.7674C0.0373291 21.1547 0.00970399 22.4772 0.11384 23.5723C0.21534 24.6397 0.465657 25.8527 1.28581 26.7821C2.17956 27.7949 3.42652 28.1289 4.73119 28.1289V26.3789ZM29.6412 14.8615L27.8933 14.7742C27.7972 16.6983 27.7724 18.4006 27.7378 19.816C27.7023 21.2638 27.6568 22.3659 27.5351 23.2139C27.4086 24.095 27.2329 24.4226 27.1463 24.5267C27.1232 24.5545 27.1104 24.5632 27.0819 24.5748C27.0403 24.5919 26.9219 24.6289 26.6731 24.6289V26.3789V28.1289C27.8899 28.1289 29.0213 27.7467 29.8382 26.7637C30.5621 25.8926 30.8487 24.7621 30.9995 23.7113C31.1551 22.6274 31.2019 21.3239 31.2367 19.9016C31.2723 18.4469 31.2958 16.8146 31.389 14.9488L29.6412 14.8615ZM29.6412 14.8615C27.8918 14.9106 27.8918 14.9106 27.8918 14.9107C27.8918 14.9108 27.8918 14.9109 27.8919 14.9111C27.8919 14.9115 27.8919 14.9121 27.8919 14.9129C27.892 14.9146 27.892 14.9171 27.8921 14.9205C27.8923 14.9274 27.8926 14.9377 27.893 14.9514C27.8937 14.9788 27.8948 15.0197 27.8962 15.0732C27.899 15.1803 27.9031 15.338 27.9079 15.5392C27.9176 15.9419 27.9307 16.5188 27.9439 17.2148C27.9703 18.6076 27.9974 20.4731 28 22.3696C28.0027 24.2714 27.9808 26.1825 27.9112 27.6745C27.8762 28.4244 27.8305 29.0364 27.7751 29.4762C27.7472 29.6984 27.7209 29.8423 27.7017 29.9224C27.6663 30.0703 27.6832 29.8939 27.8526 29.6599L29.2701 30.6862L30.6876 31.7124C30.9551 31.3429 31.0608 30.9242 31.1056 30.7371C31.1666 30.4822 31.2119 30.1981 31.2477 29.9135C31.32 29.3396 31.3708 28.6221 31.4074 27.8376C31.4809 26.2609 31.5027 24.2835 31.5 22.3647C31.4973 20.4406 31.4699 18.5532 31.4433 17.1484C31.4299 16.4455 31.4167 15.8624 31.4069 15.4547C31.402 15.2508 31.3979 15.0907 31.395 14.9814C31.3936 14.9267 31.3924 14.8847 31.3917 14.8562C31.3913 14.842 31.391 14.8312 31.3908 14.8238C31.3907 14.8201 31.3906 14.8173 31.3905 14.8154C31.3905 14.8145 31.3905 14.8137 31.3905 14.8132C31.3905 14.813 31.3905 14.8127 31.3905 14.8126C31.3905 14.8125 31.3905 14.8124 29.6412 14.8615ZM29.2701 30.6862L27.8526 29.66C28.0186 29.4306 28.1455 29.4548 27.8444 29.5609C27.6013 29.6466 27.2293 29.7328 26.7224 29.8045C25.7156 29.947 24.4233 30 23.1038 30C21.7971 30 20.5205 29.9484 19.5664 29.8962C19.0906 29.8702 18.6979 29.8443 18.4253 29.8249C18.2891 29.8152 18.1831 29.8072 18.1118 29.8016C18.0762 29.7989 18.0493 29.7967 18.0317 29.7953C18.0229 29.7946 18.0165 29.7941 18.0124 29.7937C18.0104 29.7936 18.0089 29.7934 18.0081 29.7934C18.0077 29.7933 18.0074 29.7933 18.0073 29.7933C18.0073 29.7933 18.0073 29.7933 18.0073 29.7933C18.0073 29.7933 18.0075 29.7933 17.8616 31.5372C17.7158 33.2811 17.716 33.2812 17.7162 33.2812C17.7163 33.2812 17.7166 33.2812 17.7168 33.2812C17.7173 33.2813 17.718 33.2813 17.7188 33.2814C17.7205 33.2815 17.7227 33.2817 17.7256 33.282C17.7313 33.2824 17.7394 33.2831 17.7499 33.2839C17.7709 33.2856 17.8013 33.2881 17.8406 33.2911C17.919 33.2972 18.0328 33.3058 18.1772 33.3161C18.466 33.3366 18.8779 33.3638 19.3754 33.391C20.3678 33.4452 21.7123 33.5 23.1038 33.5C24.4823 33.5 25.9651 33.4466 27.2129 33.27C27.8334 33.1821 28.4585 33.0555 29.0078 32.8619C29.4991 32.6888 30.2135 32.3673 30.6876 31.7124L29.2701 30.6862ZM26.6731 26.3789V24.6289C25.697 24.6289 25.1484 24.4535 24.8374 24.1957C24.5857 23.987 24.1682 23.4527 24.144 21.8934L22.3943 21.9205L20.6445 21.9477C20.6779 24.1036 21.2868 25.7985 22.6037 26.8902C23.8612 27.9327 25.4232 28.1289 26.6731 28.1289V26.3789ZM22.3943 21.9205L24.144 21.8934C24.1237 20.5812 24.6392 19.8101 25.3163 19.3873C26.0525 18.9277 27.2525 18.7174 28.8011 19.1482L29.2701 17.4622L29.7391 15.7762C27.4984 15.1529 25.2317 15.3141 23.4629 16.4184C21.635 17.5595 20.6072 19.5445 20.6445 21.9477L22.3943 21.9205ZM2.13426 17.4622L2.60326 19.1482C4.15938 18.7153 5.28914 18.9341 5.96385 19.3714C6.59083 19.7777 7.10502 20.5515 7.10502 21.9205H8.85502H10.605C10.605 19.5742 9.65344 17.5918 7.86734 16.4343C6.12897 15.3077 3.89834 15.155 1.66526 15.7762L2.13426 17.4622ZM8.85502 21.9205H7.10502C7.10502 23.4058 6.6687 23.954 6.38425 24.1855C6.03062 24.4732 5.47074 24.6289 4.73119 24.6289V26.3789V28.1289C5.84663 28.1289 7.34866 27.913 8.5932 26.9004C9.90693 25.8314 10.605 24.1505 10.605 21.9205H8.85502Z" fill="black"/>
</svg>
