<svg width="35" height="35" viewBox="0 0 35 35" fill="none" xmlns="http://www.w3.org/2000/svg">
<circle cx="17.0275" cy="17" r="13.5" fill="white" stroke="black" stroke-width="3"/>
<path d="M17.0275 0L21.0275 3H17.0275H13.0275L17.0275 0Z" fill="black"/>
<path d="M17.0275 34L21.0275 31H17.0275H13.0275L17.0275 34Z" fill="black"/>
<path d="M0.0274658 17L3.02747 21L3.02747 17L3.02747 13L0.0274658 17Z" fill="black"/>
<path d="M34.0275 17L31.0275 21V17V13L34.0275 17Z" fill="black"/>
<path d="M4.85589 28.9498L9.80564 29.6569L6.97721 26.8284L4.14879 24L4.85589 28.9498Z" fill="black"/>
<path d="M29.199 28.9498L24.2493 29.6569L27.0777 26.8284L29.9061 24L29.199 28.9498Z" fill="black"/>
<path d="M1.53073 10.3151L5.83311 7.76763L4.30237 11.4632L2.77164 15.1587L1.53073 10.3151Z" fill="black"/>
<path d="M32.5242 10.3151L28.2218 7.76763L29.7526 11.4632L31.2833 15.1587L32.5242 10.3151Z" fill="black"/>
<path d="M1.53073 23.8436L5.83311 26.3911L4.30237 22.6955L2.77164 19L1.53073 23.8436Z" fill="black"/>
<path d="M32.5242 23.8436L28.2218 26.3911L29.7526 22.6955L31.2833 19L32.5242 23.8436Z" fill="black"/>
<path d="M4.85589 4.82843L9.80564 4.12133L6.97721 6.94975L4.14879 9.77818L4.85589 4.82843Z" fill="black"/>
<path d="M29.199 4.82843L24.2493 4.12133L27.0777 6.94975L29.9061 9.77818L29.199 4.82843Z" fill="black"/>
<path d="M10.723 1.53073L15.5666 2.77163L11.871 4.30237L8.17552 5.8331L10.723 1.53073Z" fill="black"/>
<path d="M23.3319 1.53073L18.4884 2.77163L22.1839 4.30237L25.8794 5.8331L23.3319 1.53073Z" fill="black"/>
<path d="M10.723 32.8023L15.5666 31.5614L11.871 30.0307L8.17552 28.5L10.723 32.8023Z" fill="black"/>
<path d="M23.3319 32.8023L18.4884 31.5614L22.1839 30.0307L25.8794 28.5L23.3319 32.8023Z" fill="black"/>
<circle cx="17.003" cy="17" r="9.25" fill="black"/>
<path d="M12 16.4C12 16.4 16 20.266 16.5 20.4C17 20.534 22.5 13.4 22.5 13.4" stroke="white" stroke-width="2.75" stroke-linecap="round"/>
</svg>
