<svg width="20" height="20" viewBox="0 0 20 20" fill="none" xmlns="http://www.w3.org/2000/svg">
<path fill-rule="evenodd" clip-rule="evenodd" d="M8 2C4.68629 2 2 4.68629 2 8C2 11.3137 4.68629 14 8 14C11.3137 14 14 11.3137 14 8C14 4.68629 11.3137 2 8 2ZM0 8C0 3.58172 3.58172 0 8 0C12.4183 0 16 3.58172 16 8C16 12.4183 12.4183 16 8 16C3.58172 16 0 12.4183 0 8Z" fill="#313131"/>
<path fill-rule="evenodd" clip-rule="evenodd" d="M11.5 8C11.5 6.067 9.933 4.5 8 4.5V2.5C11.0376 2.5 13.5 4.96243 13.5 8H11.5Z" fill="#313131"/>
<path fill-rule="evenodd" clip-rule="evenodd" d="M13.7071 12.293L19.7071 18.293L18.2929 19.7072L12.2929 13.7072L13.7071 12.293Z" fill="#313131"/>
</svg>
